<?xml version="1.0" encoding="UTF-8"?>
<svg width="120px" height="120px" viewBox="0 0 120 120" version="1.1" xmlns="http://www.w3.org/2000/svg" xmlns:xlink="http://www.w3.org/1999/xlink">
    <!-- Generator: Sketch 51.2 (57519) - http://www.bohemiancoding.com/sketch -->
    <title>tixing</title>
    <desc>Created with Sketch.</desc>
    <defs></defs>
    <g id="PC" stroke="none" stroke-width="1" fill="none" fill-rule="evenodd">
        <g id="播放页错误提示状态总" transform="translate(-478.000000, -125.000000)" fill="#D0021B" fill-rule="nonzero">
            <g id="tixing" transform="translate(478.000000, 125.000000)">
                <path d="M59.9610567,119.89564 C26.8565638,119.89564 0.0204674413,93.0595435 0.0204674413,59.9550507 C0.0204674413,26.8512438 26.8565639,0.0144614078 59.9610567,0.0144614078 C93.0655495,0.0144614078 119.901646,26.8512438 119.901646,59.9550507 C119.901646,93.0595435 93.0655496,119.89564 59.9610567,119.89564 Z M59.9610567,6.67457242 C30.5348408,6.67457242 6.68057859,30.5296579 6.68057859,59.9550505 C6.68057859,89.3812665 30.534978,113.235529 59.9610567,113.235529 C89.3871355,113.235529 113.241535,89.3812665 113.241535,59.9550505 C113.241535,30.5295207 89.3871355,6.67457242 59.9610567,6.67457242 Z M59.9610567,93.2553322 C56.2826425,93.2553322 53.3009456,90.2736353 53.3009456,86.5952211 C53.3009456,82.9168069 56.2826425,79.9351099 59.9610567,79.9351099 C63.6394709,79.9351099 66.6211679,82.9168069 66.6211679,86.5952211 C66.6211679,90.2736353 63.6393337,93.2553322 59.9610567,93.2553322 Z M56.2000462,73.2751358 L53.4048082,26.6546317 L66.5370623,26.6546317 L63.6033865,73.2751358 L56.2000462,73.2751358 Z" id="Shape"></path>
            </g>
        </g>
    </g>
</svg>
